<?xml version="1.0" encoding="iso-8859-1"?>
<!-- Generator: Adobe Illustrator 23.0.6, SVG Export Plug-In . SVG Version: 6.00 Build 0)  -->
<svg version="1.1" id="&#x5716;&#x5C64;_1" xmlns="http://www.w3.org/2000/svg" xmlns:xlink="http://www.w3.org/1999/xlink" x="0px"
	 y="0px" viewBox="0 0 300 150" style="enable-background:new 0 0 300 150;" xml:space="preserve">
<g>
	<rect style="fill:#12294B;" width="300" height="150"/>
	<g>
		<g>
			<path style="fill:#FFFFFF;" d="M53.211,54.889c0.897,1.144,1.428,0.796,3.551-0.229c0,0,2.178-1.428,4.31-2.444
				c4.457-2.123,10.937-3.587,15.348-0.559c0.888,0.604,1.574,1.318,2.169,2.114l1.4-10.003
				C70.106,41.601,59.206,47.916,53.211,54.889z"/>
			<path style="fill:#FFFFFF;" d="M78.141,74.74l0.787,0.128c6.845-5.875,19.054-18.359,9.152-26.98
				c-2.508-2.187-5.271-3.514-8.09-4.119l-1.4,10.003C82.57,59.255,79.935,68.663,78.141,74.74z"/>
			<path style="fill:#FFFFFF;" d="M60.277,61.634C60.24,61.323,45.13,47.888,45.13,47.888l-17.846,0.604l-2.901,15.009
				c0,0,3.606,13.115,5.162,14.707l3.377,1.675l-2.883,0.366c2.471,2.572,4.612,7.999,5.985,11.303
				c2.462,5.867,2.462,9.353-2.617,12.126c2.59,2.801,13.353,0.659,13.7-8.639l-0.558,0.329c-0.448,1.043-1.126,2.727-2.151,3.258
				c-0.796-7.413-4.787-11.879-9.591-17.828c-4.804-5.949-9.573-12.721-5.39-20.5c4.008-7.45,11.897-8.987,19.31-5.93
				c2.901,1.217,6.653,3.048,9.326,5.619c0.448,0.421,2.828,3.102,3.23,5.555l0.165-0.018C61.448,65.524,61.192,63.3,60.277,61.634z
				"/>
			<path style="fill:#FFFFFF;" d="M67.562,90.316l3.368,7.359l7.02,5.125l0.641-2.16c-0.192,0.055-0.402,0.119-0.641,0.146
				c-6.105,0.677-7.367-8.273-8.209-12.391c-1.025-5.052-3.276-10.598-9.042-11.184c-1.153-0.119-2.434,0-3.587,0.421l7.267,6.004
				L67.562,90.316z"/>
			<path style="fill:#FFFFFF;" d="M78.955,87.36l-0.485,0.064c0.531,0.622,1.73,2.434,2.068,3.752l0.549,0.678l-0.238,0.915
				c0.44,3.276,0.018,7.056-2.26,7.871l-0.641,2.16l-7.02-5.125l-3.368-7.359l-3.185-6.68l-7.267-6.004
				c-1.574,0.577-2.947,1.684-3.349,3.524c-0.659,3.048,0.952,4.054,2.901,5.857l0.705-0.211c-1.162-1.253,0.037-1.839,1.034-1.885
				c1.876-0.073,4.521,0.229,5.885,2.123c1.446,2.032,2.434,5.363,3.331,7.614c1.098,2.764,2.416,5.51,4.356,7.834
				c3.185,3.734,11.742,8.255,14.533,1.556C88.775,98.626,84.474,92.458,78.955,87.36z"/>
			<g>
				<path style="fill:#FFFFFF;" d="M86.762,47.266c-9.719-8.566-26.595-2.095-34.265,6.891c0.87,1.126,1.391,0.787,3.514-0.247
					c0,0,2.197-1.418,4.311-2.434c4.484-2.123,10.955-3.587,15.357-0.559c7.184,4.951,4.567,16.904,2.462,23.822
					C85.005,68.864,96.82,55.393,86.762,47.266"/>
				<path style="fill:#FFFFFF;" d="M78.47,87.424c2.087,2.324,3.167,12.172-1.226,12.666c-6.15,0.668-7.367-8.264-8.218-12.392
					c-1.062-5.052-3.377-10.049-9.152-10.607c-2.736-0.284-6.132,0.229-6.828,3.377c-0.686,3.048,1.666,4.777,3.624,6.553
					c-1.409-1.29-0.183-2.187,1.318-2.306c1.886-0.174,4.228,0.229,5.583,1.629c1.702,1.83,2.416,5.354,3.35,7.614
					c1.089,2.764,2.361,5.51,4.338,7.806c3.167,3.78,11.733,8.273,14.515,1.583C88.199,97.574,82.003,91.323,78.47,87.424"/>
				<path style="fill:#FFFFFF;" d="M61.448,65.579c-0.668-8.886-7.633-16.098-15.265-19.877c-7.01-3.469-16.684-4.988-23.109,0.503
					c-9.289,7.953-6.013,23.365,1.501,31.281c3.907,4.118,8.593,7.962,10.826,13.334c2.471,5.866-1.144,10.369-6.251,13.151
					c7.056,4.009,17.672,0.485,17.398-8.603c-0.714,1.235-1.794,2.178-3.038,2.818c-0.192-13.874-22.669-23.813-14.707-38.639
					c3.999-7.449,11.888-8.978,19.311-5.912C52.79,55.576,60.277,60.078,61.448,65.579"/>
			</g>
			<path style="fill:#FFFFFF;" d="M80.85,92.769l-2.26,7.871C80.868,99.825,81.289,96.045,80.85,92.769z"/>
		</g>
		<path style="fill:#FFFFFF;" d="M107.976,52.464h13.902v2.782h-5.464v19.292h-2.965V55.246h-5.473V52.464z"/>
		<path style="fill:#FFFFFF;" d="M177.663,52.464c-4.302,0-7.56,3.221-7.56,8.447v5.628c0,5.235,3.258,8.456,7.56,8.456
			c4.265,0,7.523-3.221,7.523-8.456v-5.628C185.186,55.685,181.946,52.464,177.663,52.464z M182.23,62.275v4.448
			c0,3.487-1.876,5.491-4.567,5.491c-2.718,0-4.594-2.005-4.594-5.491v-1.519h0.036v-4.466c0-3.487,1.84-5.491,4.558-5.491
			c2.691,0,4.567,2.004,4.567,5.491V62.275L182.23,62.275z"/>
		<path style="fill:#FFFFFF;" d="M126.728,74.539V52.464h2.956v22.075H126.728z"/>
		<polygon style="fill:#FFFFFF;" points="160.673,52.464 160.673,61.506 151.521,61.506 151.521,52.464 148.574,52.464 
			148.574,74.539 151.521,74.539 151.521,64.471 160.673,64.471 160.673,74.539 163.628,74.539 163.628,52.464 		"/>
		<path style="fill:#FFFFFF;" d="M177.315,81.247h13.618v2.718h-5.354v18.917h-2.91V83.965h-5.354V81.247z"/>
		<path style="fill:#FFFFFF;" d="M232.812,103.257V89.529c0-5.134,3.185-8.283,7.376-8.283c4.21,0,7.395,3.148,7.395,8.283v13.728
			h-2.892v-9.82h-7.806V90.71h7.806v-1.364c0-3.405-1.812-5.381-4.503-5.381c-2.663,0-4.466,1.976-4.466,5.381v13.911H232.812z"/>
		<path style="fill:#FFFFFF;" d="M145.178,103.257V89.529c0-5.134,3.203-8.283,7.404-8.283c4.201,0,7.395,3.148,7.395,8.283v13.728
			h-2.91v-9.82h-7.797V90.71h7.797v-1.364c0-3.405-1.839-5.381-4.484-5.381c-2.663,0-4.503,1.976-4.503,5.381v13.911H145.178z"/>
		<path style="fill:#FFFFFF;" d="M266.528,88.211c0-3.688-2.764-6.964-7.148-6.964c-3.706,0-6.946,2.883-6.946,7.532v14.479h2.929
			V88.431c0-2.773,1.739-4.466,4.054-4.466c2.389,0,4.183,1.602,4.183,4.246c0,2.59-1.721,4.155-4.009,4.155h-3.075v2.728h3.697
			l2.892,8.164h3.13l-3.13-8.841C265.137,93.3,266.528,90.939,266.528,88.211z"/>
		<path style="fill:#FFFFFF;" d="M217.529,93.062c0.256,4.063,3.862,7.102,7.633,7.102h2.8v2.718h-2.279
			c-6.461,0-11.193-4.695-11.193-10.809c0-6.132,4.732-10.826,11.193-10.826h2.279v2.718h-1.931c-5.665,0-8.383,4.21-8.502,6.369
			V93.062z"/>
		<path style="fill:#FFFFFF;" d="M282.745,93.062h-10.424c0.247,4.063,3.853,7.102,7.642,7.102h2.782v2.718h-2.269
			c-6.48,0-11.202-4.695-11.202-10.809c0-6.132,4.722-10.826,11.202-10.826h2.269v2.718h-1.922c-5.674,0-8.392,4.21-8.502,6.369
			h10.424V93.062z"/>
		<path style="fill:#FFFFFF;" d="M140.319,93.062h-10.488c0.275,4.063,3.899,7.102,7.651,7.102h2.837v2.718h-2.288
			c-6.498,0-11.192-4.695-11.192-10.809c0-6.132,4.695-10.826,11.192-10.826h2.288v2.718h-1.949c-5.665,0-8.392,4.21-8.539,6.369
			h10.488V93.062z"/>
		<polygon style="fill:#FFFFFF;" points="120.093,81.247 120.093,90.28 110.96,90.28 110.96,81.247 107.976,81.247 107.976,103.33 
			110.96,103.33 110.96,93.245 120.093,93.245 120.093,103.33 123.077,103.33 123.077,81.247 		"/>
		<polygon style="fill:#FFFFFF;" points="207.013,81.247 207.013,90.28 197.879,90.28 197.879,81.247 194.905,81.247 
			194.905,103.33 197.879,103.33 197.879,93.245 207.013,93.245 207.013,103.33 209.996,103.33 209.996,81.247 		"/>
		<path style="fill:#FFFFFF;" d="M168.292,81.247V95.46c0,3.423,1.391,5.088,4.503,5.088h2.846v2.782h-3.304
			c-4.246,0-6.996-2.965-6.996-7.139V81.247H168.292z"/>
		<path style="fill:#FFFFFF;" d="M134.498,61.817h8.932V64.6h-3.533h-1.886h-3.514V61.817z"/>
	</g>
</g>
</svg>
